M48
;GenerationSoftware,Autodesk,EAGLE,9.6.1*%
;CreationDate,2020-05-10T17:36:56Z*%
FMAT,2
ICI,OFF
METRIC,TZ,000.000
T1C1.016
%
G90
M71
T1
X55524Y43155
X55524Y40615
X55524Y38075
X55524Y35535
X55524Y32995
X55524Y30455
X55524Y27915
X52984Y25375
X55524Y25375
X50444Y25375
X52984Y27915
X47904Y25375
X52984Y30455
X50444Y27915
X45364Y25375
X50444Y30455
X47904Y27915
X47904Y30455
X45364Y27915
X45364Y30455
X42824Y30455
X42824Y25375
X42824Y27915
X40284Y30455
X40284Y25375
X40284Y27915
X37744Y30455
X37744Y25375
X37744Y27915
X35204Y30455
X35204Y25375
X35204Y27915
X32664Y30455
X32664Y25375
X32664Y27915
X30124Y30455
X30124Y25375
X30124Y27915
X27584Y30455
X27584Y25375
X27584Y27915
X25044Y30455
X25044Y25375
X25044Y27915
X22504Y30455
X22504Y25375
X22504Y27915
X19964Y30455
X19964Y25375
X19964Y27915
X17424Y30455
X17424Y25375
X17424Y27915
X14884Y30455
X14884Y25375
X14884Y27915
X12344Y30455
X12344Y25375
X12344Y27915
X9804Y30455
X9804Y25375
X9804Y27915
X7264Y30455
X7264Y25375
X7264Y27915
X2184Y30455
X4724Y30455
X2184Y25375
X4724Y25375
X2184Y27915
X4724Y27915
X52984Y32995
X50444Y32995
X47904Y32995
X45364Y32995
X42824Y32995
X40284Y32995
X37744Y32995
X35204Y32995
X32664Y32995
X30124Y32995
X27584Y32995
X25044Y32995
X22504Y32995
X19964Y32995
X17424Y32995
X14884Y32995
X12344Y32995
X9804Y32995
X7264Y32995
X2184Y32995
X4724Y32995
X52984Y35535
X50444Y35535
X47904Y35535
X45364Y35535
X42824Y35535
X40284Y35535
X37744Y35535
X35204Y35535
X32664Y35535
X30124Y35535
X27584Y35535
X25044Y35535
X22504Y35535
X19964Y35535
X17424Y35535
X14884Y35535
X12344Y35535
X9804Y35535
X7264Y35535
X2184Y35535
X4724Y35535
X52984Y38075
X50444Y38075
X47904Y38075
X45364Y38075
X42824Y38075
X40284Y38075
X37744Y38075
X35204Y38075
X32664Y38075
X30124Y38075
X27584Y38075
X25044Y38075
X22504Y38075
X19964Y38075
X17424Y38075
X14884Y38075
X12344Y38075
X9804Y38075
X7264Y38075
X2184Y38075
X4724Y38075
X52984Y40615
X50444Y40615
X47904Y40615
X45364Y40615
X42824Y40615
X40284Y40615
X37744Y40615
X35204Y40615
X32664Y40615
X30124Y40615
X27584Y40615
X25044Y40615
X22504Y40615
X19964Y40615
X17424Y40615
X14884Y40615
X12344Y40615
X9804Y40615
X7264Y40615
X2184Y40615
X4724Y40615
X52984Y43155
X50444Y43155
X47904Y43155
X45364Y43155
X42824Y43155
X40284Y43155
X37744Y43155
X35204Y43155
X32664Y43155
X25044Y43155
X22504Y43155
X19964Y43155
X17424Y43155
X14884Y43155
X12344Y43155
X9804Y43155
X7264Y43155
X2184Y43155
X4724Y43155
X55524Y81255
X55524Y78715
X55524Y76175
X55524Y73635
X55524Y71095
X55524Y68555
X55524Y66015
X55524Y63475
X55524Y60935
X55524Y58395
X55524Y55855
X55524Y53315
X55524Y50775
X55524Y48235
X52984Y45695
X55524Y45695
X50444Y45695
X47904Y45695
X45364Y45695
X42824Y45695
X40284Y45695
X37744Y45695
X35204Y45695
X32664Y45695
X25044Y45695
X22504Y45695
X19964Y45695
X17424Y45695
X14884Y45695
X12344Y45695
X9804Y45695
X7264Y45695
X2184Y45695
X4724Y45695
X52984Y48235
X50444Y48235
X47904Y48235
X45364Y48235
X42824Y48235
X40284Y48235
X37744Y48235
X35204Y48235
X32664Y48235
X25044Y48235
X27584Y48235
X27584Y43155
X27584Y45695
X30124Y48235
X30124Y43155
X30124Y45695
X22504Y48235
X19964Y48235
X17424Y48235
X14884Y48235
X12344Y48235
X9804Y48235
X7264Y48235
X2184Y48235
X4724Y48235
X52984Y50775
X50444Y50775
X47904Y50775
X45364Y50775
X42824Y50775
X40284Y50775
X37744Y50775
X35204Y50775
X32664Y50775
X30124Y50775
X27584Y50775
X25044Y50775
X22504Y50775
X19964Y50775
X17424Y50775
X14884Y50775
X12344Y50775
X9804Y50775
X7264Y50775
X2184Y50775
X4724Y50775
X52984Y53315
X50444Y53315
X47904Y53315
X45364Y53315
X42824Y53315
X40284Y53315
X37744Y53315
X35204Y53315
X32664Y53315
X30124Y53315
X27584Y53315
X25044Y53315
X22504Y53315
X19964Y53315
X17424Y53315
X14884Y53315
X12344Y53315
X9804Y53315
X7264Y53315
X2184Y53315
X4724Y53315
X52984Y55855
X50444Y55855
X47904Y55855
X45364Y55855
X42824Y55855
X40284Y55855
X37744Y55855
X35204Y55855
X32664Y55855
X30124Y55855
X27584Y55855
X25044Y55855
X22504Y55855
X19964Y55855
X17424Y55855
X14884Y55855
X12344Y55855
X9804Y55855
X7264Y55855
X2184Y55855
X4724Y55855
X52984Y58395
X50444Y58395
X47904Y58395
X45364Y58395
X42824Y58395
X40284Y58395
X37744Y58395
X35204Y58395
X32664Y58395
X30124Y58395
X27584Y58395
X25044Y58395
X22504Y58395
X19964Y58395
X17424Y58395
X14884Y58395
X12344Y58395
X9804Y58395
X7264Y58395
X2184Y58395
X4724Y58395
X52984Y60935
X50444Y60935
X47904Y60935
X45364Y60935
X42824Y60935
X40284Y60935
X37744Y60935
X35204Y60935
X32664Y60935
X30124Y60935
X27584Y60935
X25044Y60935
X22504Y60935
X19964Y60935
X17424Y60935
X14884Y60935
X12344Y60935
X9804Y60935
X7264Y60935
X2184Y60935
X4724Y60935
X52984Y63475
X50444Y63475
X47904Y63475
X45364Y63475
X42824Y63475
X40284Y63475
X37744Y63475
X35204Y63475
X32664Y63475
X30124Y63475
X27584Y63475
X25044Y63475
X22504Y63475
X19964Y63475
X17424Y63475
X14884Y63475
X12344Y63475
X9804Y63475
X7264Y63475
X2184Y63475
X4724Y63475
X52984Y66015
X50444Y66015
X47904Y66015
X45364Y66015
X42824Y66015
X40284Y66015
X37744Y66015
X35204Y66015
X32664Y66015
X30124Y66015
X27584Y66015
X25044Y66015
X22504Y66015
X19964Y66015
X17424Y66015
X14884Y66015
X12344Y66015
X9804Y66015
X7264Y66015
X4724Y66015
X52984Y68555
X50444Y68555
X47904Y68555
X45364Y68555
X42824Y68555
X40284Y68555
X37744Y68555
X35204Y68555
X32664Y68555
X30124Y68555
X27584Y68555
X25044Y68555
X22504Y68555
X19964Y68555
X17424Y68555
X14884Y68555
X12344Y68555
X9804Y68555
X7264Y68555
X2184Y66015
X4724Y68555
X52984Y71095
X50444Y71095
X47904Y71095
X45364Y71095
X42824Y71095
X40284Y71095
X37744Y71095
X35204Y71095
X32664Y71095
X30124Y71095
X27584Y71095
X25044Y71095
X22504Y71095
X19964Y71095
X17424Y71095
X14884Y71095
X12344Y71095
X9804Y71095
X7264Y71095
X2184Y68555
X4724Y71095
X52984Y73635
X50444Y73635
X47904Y73635
X45364Y73635
X42824Y73635
X40284Y73635
X37744Y73635
X35204Y73635
X32664Y73635
X30124Y73635
X27584Y73635
X25044Y73635
X22504Y73635
X19964Y73635
X17424Y73635
X14884Y73635
X12344Y73635
X9804Y73635
X7264Y73635
X2184Y71095
X4724Y73635
X52984Y81255
X50444Y81255
X47904Y81255
X45364Y81255
X42824Y81255
X40284Y81255
X37744Y81255
X35204Y81255
X32664Y81255
X30124Y81255
X27584Y81255
X25044Y81255
X22504Y81255
X19964Y81255
X17424Y81255
X14884Y81255
X12344Y81255
X9804Y81255
X7264Y81255
X2184Y81255
X4724Y81255
X52984Y76175
X50444Y76175
X47904Y76175
X45364Y76175
X42824Y76175
X40284Y76175
X37744Y76175
X35204Y76175
X32664Y76175
X30124Y76175
X27584Y76175
X25044Y76175
X22504Y76175
X19964Y76175
X17424Y76175
X14884Y76175
X12344Y76175
X9804Y76175
X7264Y76175
X2184Y73635
X4724Y76175
X52984Y78715
X50444Y78715
X47904Y78715
X45364Y78715
X42824Y78715
X40284Y78715
X37744Y78715
X35204Y78715
X32664Y78715
X30124Y78715
X27584Y78715
X25044Y78715
X22504Y78715
X19964Y78715
X17424Y78715
X14884Y78715
X12344Y78715
X9804Y78715
X7264Y78715
X4724Y78715
X2184Y76175
X2184Y78715
X55524Y88875
X55524Y86335
X55524Y83795
X52984Y88875
X50444Y88875
X47904Y88875
X45364Y88875
X42824Y88875
X40284Y88875
X37744Y88875
X35204Y88875
X32664Y88875
X30124Y88875
X27584Y88875
X25044Y88875
X22504Y88875
X19964Y88875
X17424Y88875
X14884Y88875
X12344Y88875
X9804Y88875
X7264Y88875
X2184Y88875
X4724Y88875
X52984Y83795
X50444Y83795
X47904Y83795
X45364Y83795
X42824Y83795
X40284Y83795
X37744Y83795
X35204Y83795
X32664Y83795
X30124Y83795
X27584Y83795
X25044Y83795
X22504Y83795
X19964Y83795
X17424Y83795
X14884Y83795
X12344Y83795
X9804Y83795
X7264Y83795
X4724Y83795
X52984Y86335
X50444Y86335
X47904Y86335
X45364Y86335
X42824Y86335
X40284Y86335
X37744Y86335
X35204Y86335
X32664Y86335
X30124Y86335
X27584Y86335
X25044Y86335
X22504Y86335
X19964Y86335
X17424Y86335
X14884Y86335
X12344Y86335
X9804Y86335
X7264Y86335
X4724Y86335
X2184Y83795
X2184Y86335
X-356Y66015
X-2896Y66015
X-356Y68555
X-2896Y68555
X-356Y71095
X-2896Y71095
X-356Y73635
X-2896Y81255
X-356Y81255
X-2896Y73635
X-356Y76175
X-356Y78715
X-2896Y76175
X-2896Y78715
X-2896Y88875
X-356Y88875
X-356Y83795
X-356Y86335
X-2896Y83795
X-2896Y86335
X60604Y66015
X58064Y66015
X60604Y68555
X58064Y68555
X60604Y71095
X58064Y71095
X60604Y73635
X58064Y81255
X60604Y81255
X58064Y73635
X60604Y76175
X60604Y78715
X58064Y76175
X58064Y78715
X58064Y88875
X60604Y88875
X60604Y83795
X60604Y86335
X58064Y83795
X58064Y86335
X-610Y35535
X-610Y38075
X-610Y40615
X-610Y43155
X-610Y45695
X-610Y48235
X-610Y50775
X-610Y53315
X-610Y55855
X-610Y58395
X-610Y60935
X-610Y63475
X58064Y35535
X58064Y38075
X58064Y40615
X58064Y43155
X58064Y45695
X58064Y48235
X58064Y50775
X58064Y53315
X58064Y55855
X58064Y58395
X58064Y60935
X58064Y63475
X55880Y16510
X53340Y16510
X50800Y16510
X48260Y16510
X45720Y16510
X43180Y16510
X40640Y16510
X38100Y16510
X35560Y16510
X33020Y16510
X30480Y16510
X27940Y16510
X25400Y16510
X22860Y16510
X20320Y16510
X17780Y16510
X15240Y16510
X12700Y16510
X10160Y16510
X7620Y16510
X5080Y16510
X2540Y16510
X55880Y20320
X53340Y20320
X50800Y20320
X48260Y20320
X45720Y20320
X43180Y20320
X40640Y20320
X38100Y20320
X35560Y20320
X33020Y20320
X30480Y20320
X27940Y20320
X25400Y20320
X22860Y20320
X20320Y20320
X17780Y20320
X15240Y20320
X12700Y20320
X10160Y20320
X7620Y20320
X5080Y20320
X2540Y20320
M30