G04 EAGLE Gerber RS-274X export*
G75*
%MOMM*%
%FSLAX34Y34*%
%LPD*%
%INSoldermask Top*%
%IPPOS*%
%AMOC8*
5,1,8,0,0,1.08239X$1,22.5*%
G01*
%ADD10C,1.727200*%
%ADD11C,1.545334*%
%ADD12P,1.869504X8X22.500000*%

G36*
X583202Y7877D02*
X583202Y7877D01*
X583220Y7875D01*
X583402Y7896D01*
X583585Y7915D01*
X583602Y7920D01*
X583619Y7922D01*
X583794Y7979D01*
X583970Y8033D01*
X583985Y8041D01*
X584002Y8047D01*
X584162Y8137D01*
X584324Y8225D01*
X584337Y8236D01*
X584353Y8245D01*
X584492Y8365D01*
X584633Y8482D01*
X584644Y8496D01*
X584658Y8508D01*
X584770Y8653D01*
X584885Y8796D01*
X584893Y8812D01*
X584904Y8826D01*
X584986Y8991D01*
X585071Y9153D01*
X585076Y9170D01*
X585084Y9187D01*
X585131Y9365D01*
X585182Y9540D01*
X585184Y9558D01*
X585188Y9575D01*
X585215Y9906D01*
X585215Y114046D01*
X585213Y114064D01*
X585215Y114082D01*
X585194Y114264D01*
X585175Y114447D01*
X585170Y114464D01*
X585168Y114481D01*
X585111Y114656D01*
X585057Y114832D01*
X585049Y114847D01*
X585043Y114864D01*
X584953Y115024D01*
X584865Y115186D01*
X584854Y115199D01*
X584845Y115215D01*
X584725Y115354D01*
X584608Y115495D01*
X584594Y115506D01*
X584582Y115520D01*
X584437Y115632D01*
X584294Y115747D01*
X584278Y115755D01*
X584264Y115766D01*
X584099Y115848D01*
X583937Y115933D01*
X583920Y115938D01*
X583904Y115946D01*
X583725Y115993D01*
X583550Y116044D01*
X583532Y116046D01*
X583515Y116050D01*
X583184Y116077D01*
X4064Y116077D01*
X4046Y116075D01*
X4028Y116077D01*
X3846Y116056D01*
X3663Y116037D01*
X3646Y116032D01*
X3629Y116030D01*
X3454Y115973D01*
X3278Y115919D01*
X3263Y115911D01*
X3246Y115905D01*
X3086Y115815D01*
X2924Y115727D01*
X2911Y115716D01*
X2895Y115707D01*
X2756Y115587D01*
X2615Y115470D01*
X2604Y115456D01*
X2591Y115444D01*
X2478Y115299D01*
X2363Y115156D01*
X2355Y115140D01*
X2344Y115126D01*
X2262Y114961D01*
X2177Y114799D01*
X2172Y114782D01*
X2164Y114766D01*
X2117Y114587D01*
X2066Y114412D01*
X2064Y114394D01*
X2060Y114377D01*
X2033Y114046D01*
X2033Y9906D01*
X2035Y9888D01*
X2033Y9870D01*
X2054Y9688D01*
X2073Y9505D01*
X2078Y9488D01*
X2080Y9471D01*
X2137Y9296D01*
X2191Y9120D01*
X2199Y9105D01*
X2205Y9088D01*
X2295Y8928D01*
X2383Y8766D01*
X2394Y8753D01*
X2403Y8737D01*
X2523Y8598D01*
X2640Y8457D01*
X2654Y8446D01*
X2666Y8433D01*
X2811Y8320D01*
X2954Y8205D01*
X2970Y8197D01*
X2984Y8186D01*
X3149Y8104D01*
X3311Y8019D01*
X3328Y8014D01*
X3345Y8006D01*
X3523Y7959D01*
X3698Y7908D01*
X3716Y7906D01*
X3733Y7902D01*
X4064Y7875D01*
X583184Y7875D01*
X583202Y7877D01*
G37*
D10*
X558800Y172720D02*
X558800Y157480D01*
X533400Y157480D02*
X533400Y172720D01*
X508000Y172720D02*
X508000Y157480D01*
X482600Y157480D02*
X482600Y172720D01*
X457200Y172720D02*
X457200Y157480D01*
X431800Y157480D02*
X431800Y172720D01*
X406400Y172720D02*
X406400Y157480D01*
X381000Y157480D02*
X381000Y172720D01*
X355600Y172720D02*
X355600Y157480D01*
X330200Y157480D02*
X330200Y172720D01*
X304800Y172720D02*
X304800Y157480D01*
X279400Y157480D02*
X279400Y172720D01*
X254000Y172720D02*
X254000Y157480D01*
X228600Y157480D02*
X228600Y172720D01*
X203200Y172720D02*
X203200Y157480D01*
X177800Y157480D02*
X177800Y172720D01*
X152400Y172720D02*
X152400Y157480D01*
X127000Y157480D02*
X127000Y172720D01*
X101600Y172720D02*
X101600Y157480D01*
X76200Y157480D02*
X76200Y172720D01*
X50800Y172720D02*
X50800Y157480D01*
X25400Y157480D02*
X25400Y172720D01*
X558800Y195580D02*
X558800Y210820D01*
X533400Y210820D02*
X533400Y195580D01*
X508000Y195580D02*
X508000Y210820D01*
X482600Y210820D02*
X482600Y195580D01*
X457200Y195580D02*
X457200Y210820D01*
X431800Y210820D02*
X431800Y195580D01*
X406400Y195580D02*
X406400Y210820D01*
X381000Y210820D02*
X381000Y195580D01*
X355600Y195580D02*
X355600Y210820D01*
X330200Y210820D02*
X330200Y195580D01*
X304800Y195580D02*
X304800Y210820D01*
X279400Y210820D02*
X279400Y195580D01*
X254000Y195580D02*
X254000Y210820D01*
X228600Y210820D02*
X228600Y195580D01*
X203200Y195580D02*
X203200Y210820D01*
X177800Y210820D02*
X177800Y195580D01*
X152400Y195580D02*
X152400Y210820D01*
X127000Y210820D02*
X127000Y195580D01*
X101600Y195580D02*
X101600Y210820D01*
X76200Y210820D02*
X76200Y195580D01*
X50800Y195580D02*
X50800Y210820D01*
X25400Y210820D02*
X25400Y195580D01*
D11*
X556620Y101240D02*
X560980Y101240D01*
X560980Y25760D01*
X556620Y25760D01*
X556620Y101240D01*
X556620Y40440D02*
X560980Y40440D01*
X560980Y55120D02*
X556620Y55120D01*
X556620Y69800D02*
X560980Y69800D01*
X560980Y84480D02*
X556620Y84480D01*
X556620Y99160D02*
X560980Y99160D01*
X535580Y101240D02*
X531220Y101240D01*
X535580Y101240D02*
X535580Y25760D01*
X531220Y25760D01*
X531220Y101240D01*
X531220Y40440D02*
X535580Y40440D01*
X535580Y55120D02*
X531220Y55120D01*
X531220Y69800D02*
X535580Y69800D01*
X535580Y84480D02*
X531220Y84480D01*
X531220Y99160D02*
X535580Y99160D01*
X510180Y101240D02*
X505820Y101240D01*
X510180Y101240D02*
X510180Y25760D01*
X505820Y25760D01*
X505820Y101240D01*
X505820Y40440D02*
X510180Y40440D01*
X510180Y55120D02*
X505820Y55120D01*
X505820Y69800D02*
X510180Y69800D01*
X510180Y84480D02*
X505820Y84480D01*
X505820Y99160D02*
X510180Y99160D01*
X484780Y101240D02*
X480420Y101240D01*
X484780Y101240D02*
X484780Y25760D01*
X480420Y25760D01*
X480420Y101240D01*
X480420Y40440D02*
X484780Y40440D01*
X484780Y55120D02*
X480420Y55120D01*
X480420Y69800D02*
X484780Y69800D01*
X484780Y84480D02*
X480420Y84480D01*
X480420Y99160D02*
X484780Y99160D01*
X459380Y101240D02*
X455020Y101240D01*
X459380Y101240D02*
X459380Y25760D01*
X455020Y25760D01*
X455020Y101240D01*
X455020Y40440D02*
X459380Y40440D01*
X459380Y55120D02*
X455020Y55120D01*
X455020Y69800D02*
X459380Y69800D01*
X459380Y84480D02*
X455020Y84480D01*
X455020Y99160D02*
X459380Y99160D01*
X433980Y101240D02*
X429620Y101240D01*
X433980Y101240D02*
X433980Y25760D01*
X429620Y25760D01*
X429620Y101240D01*
X429620Y40440D02*
X433980Y40440D01*
X433980Y55120D02*
X429620Y55120D01*
X429620Y69800D02*
X433980Y69800D01*
X433980Y84480D02*
X429620Y84480D01*
X429620Y99160D02*
X433980Y99160D01*
X408580Y101240D02*
X404220Y101240D01*
X408580Y101240D02*
X408580Y25760D01*
X404220Y25760D01*
X404220Y101240D01*
X404220Y40440D02*
X408580Y40440D01*
X408580Y55120D02*
X404220Y55120D01*
X404220Y69800D02*
X408580Y69800D01*
X408580Y84480D02*
X404220Y84480D01*
X404220Y99160D02*
X408580Y99160D01*
X383180Y101240D02*
X378820Y101240D01*
X383180Y101240D02*
X383180Y25760D01*
X378820Y25760D01*
X378820Y101240D01*
X378820Y40440D02*
X383180Y40440D01*
X383180Y55120D02*
X378820Y55120D01*
X378820Y69800D02*
X383180Y69800D01*
X383180Y84480D02*
X378820Y84480D01*
X378820Y99160D02*
X383180Y99160D01*
X357780Y101240D02*
X353420Y101240D01*
X357780Y101240D02*
X357780Y25760D01*
X353420Y25760D01*
X353420Y101240D01*
X353420Y40440D02*
X357780Y40440D01*
X357780Y55120D02*
X353420Y55120D01*
X353420Y69800D02*
X357780Y69800D01*
X357780Y84480D02*
X353420Y84480D01*
X353420Y99160D02*
X357780Y99160D01*
X332380Y101240D02*
X328020Y101240D01*
X332380Y101240D02*
X332380Y25760D01*
X328020Y25760D01*
X328020Y101240D01*
X328020Y40440D02*
X332380Y40440D01*
X332380Y55120D02*
X328020Y55120D01*
X328020Y69800D02*
X332380Y69800D01*
X332380Y84480D02*
X328020Y84480D01*
X328020Y99160D02*
X332380Y99160D01*
X306980Y101240D02*
X302620Y101240D01*
X306980Y101240D02*
X306980Y25760D01*
X302620Y25760D01*
X302620Y101240D01*
X302620Y40440D02*
X306980Y40440D01*
X306980Y55120D02*
X302620Y55120D01*
X302620Y69800D02*
X306980Y69800D01*
X306980Y84480D02*
X302620Y84480D01*
X302620Y99160D02*
X306980Y99160D01*
X281580Y101240D02*
X277220Y101240D01*
X281580Y101240D02*
X281580Y25760D01*
X277220Y25760D01*
X277220Y101240D01*
X277220Y40440D02*
X281580Y40440D01*
X281580Y55120D02*
X277220Y55120D01*
X277220Y69800D02*
X281580Y69800D01*
X281580Y84480D02*
X277220Y84480D01*
X277220Y99160D02*
X281580Y99160D01*
X256180Y101240D02*
X251820Y101240D01*
X256180Y101240D02*
X256180Y25760D01*
X251820Y25760D01*
X251820Y101240D01*
X251820Y40440D02*
X256180Y40440D01*
X256180Y55120D02*
X251820Y55120D01*
X251820Y69800D02*
X256180Y69800D01*
X256180Y84480D02*
X251820Y84480D01*
X251820Y99160D02*
X256180Y99160D01*
X230780Y101240D02*
X226420Y101240D01*
X230780Y101240D02*
X230780Y25760D01*
X226420Y25760D01*
X226420Y101240D01*
X226420Y40440D02*
X230780Y40440D01*
X230780Y55120D02*
X226420Y55120D01*
X226420Y69800D02*
X230780Y69800D01*
X230780Y84480D02*
X226420Y84480D01*
X226420Y99160D02*
X230780Y99160D01*
X205380Y101240D02*
X201020Y101240D01*
X205380Y101240D02*
X205380Y25760D01*
X201020Y25760D01*
X201020Y101240D01*
X201020Y40440D02*
X205380Y40440D01*
X205380Y55120D02*
X201020Y55120D01*
X201020Y69800D02*
X205380Y69800D01*
X205380Y84480D02*
X201020Y84480D01*
X201020Y99160D02*
X205380Y99160D01*
X179980Y101240D02*
X175620Y101240D01*
X179980Y101240D02*
X179980Y25760D01*
X175620Y25760D01*
X175620Y101240D01*
X175620Y40440D02*
X179980Y40440D01*
X179980Y55120D02*
X175620Y55120D01*
X175620Y69800D02*
X179980Y69800D01*
X179980Y84480D02*
X175620Y84480D01*
X175620Y99160D02*
X179980Y99160D01*
X154580Y101240D02*
X150220Y101240D01*
X154580Y101240D02*
X154580Y25760D01*
X150220Y25760D01*
X150220Y101240D01*
X150220Y40440D02*
X154580Y40440D01*
X154580Y55120D02*
X150220Y55120D01*
X150220Y69800D02*
X154580Y69800D01*
X154580Y84480D02*
X150220Y84480D01*
X150220Y99160D02*
X154580Y99160D01*
X129180Y101240D02*
X124820Y101240D01*
X129180Y101240D02*
X129180Y25760D01*
X124820Y25760D01*
X124820Y101240D01*
X124820Y40440D02*
X129180Y40440D01*
X129180Y55120D02*
X124820Y55120D01*
X124820Y69800D02*
X129180Y69800D01*
X129180Y84480D02*
X124820Y84480D01*
X124820Y99160D02*
X129180Y99160D01*
X103780Y101240D02*
X99420Y101240D01*
X103780Y101240D02*
X103780Y25760D01*
X99420Y25760D01*
X99420Y101240D01*
X99420Y40440D02*
X103780Y40440D01*
X103780Y55120D02*
X99420Y55120D01*
X99420Y69800D02*
X103780Y69800D01*
X103780Y84480D02*
X99420Y84480D01*
X99420Y99160D02*
X103780Y99160D01*
X78380Y101240D02*
X74020Y101240D01*
X78380Y101240D02*
X78380Y25760D01*
X74020Y25760D01*
X74020Y101240D01*
X74020Y40440D02*
X78380Y40440D01*
X78380Y55120D02*
X74020Y55120D01*
X74020Y69800D02*
X78380Y69800D01*
X78380Y84480D02*
X74020Y84480D01*
X74020Y99160D02*
X78380Y99160D01*
X52980Y101240D02*
X48620Y101240D01*
X52980Y101240D02*
X52980Y25760D01*
X48620Y25760D01*
X48620Y101240D01*
X48620Y40440D02*
X52980Y40440D01*
X52980Y55120D02*
X48620Y55120D01*
X48620Y69800D02*
X52980Y69800D01*
X52980Y84480D02*
X48620Y84480D01*
X48620Y99160D02*
X52980Y99160D01*
X27580Y101240D02*
X23220Y101240D01*
X27580Y101240D02*
X27580Y25760D01*
X23220Y25760D01*
X23220Y101240D01*
X23220Y40440D02*
X27580Y40440D01*
X27580Y55120D02*
X23220Y55120D01*
X23220Y69800D02*
X27580Y69800D01*
X27580Y84480D02*
X23220Y84480D01*
X23220Y99160D02*
X27580Y99160D01*
D12*
X555244Y431546D03*
X555244Y406146D03*
X555244Y380746D03*
X555244Y355346D03*
X555244Y329946D03*
X555244Y304546D03*
X555244Y279146D03*
X529844Y253746D03*
X555244Y253746D03*
X504444Y253746D03*
X529844Y279146D03*
X479044Y253746D03*
X529844Y304546D03*
X504444Y279146D03*
X453644Y253746D03*
X504444Y304546D03*
X479044Y279146D03*
X479044Y304546D03*
X453644Y279146D03*
X453644Y304546D03*
X428244Y304546D03*
X428244Y253746D03*
X428244Y279146D03*
X402844Y304546D03*
X402844Y253746D03*
X402844Y279146D03*
X377444Y304546D03*
X377444Y253746D03*
X377444Y279146D03*
X352044Y304546D03*
X352044Y253746D03*
X352044Y279146D03*
X326644Y304546D03*
X326644Y253746D03*
X326644Y279146D03*
X301244Y304546D03*
X301244Y253746D03*
X301244Y279146D03*
X275844Y304546D03*
X275844Y253746D03*
X275844Y279146D03*
X250444Y304546D03*
X250444Y253746D03*
X250444Y279146D03*
X225044Y304546D03*
X225044Y253746D03*
X225044Y279146D03*
X199644Y304546D03*
X199644Y253746D03*
X199644Y279146D03*
X174244Y304546D03*
X174244Y253746D03*
X174244Y279146D03*
X148844Y304546D03*
X148844Y253746D03*
X148844Y279146D03*
X123444Y304546D03*
X123444Y253746D03*
X123444Y279146D03*
X98044Y304546D03*
X98044Y253746D03*
X98044Y279146D03*
X72644Y304546D03*
X72644Y253746D03*
X72644Y279146D03*
X21844Y304546D03*
X47244Y304546D03*
X21844Y253746D03*
X47244Y253746D03*
X21844Y279146D03*
X47244Y279146D03*
X529844Y329946D03*
X504444Y329946D03*
X479044Y329946D03*
X453644Y329946D03*
X428244Y329946D03*
X402844Y329946D03*
X377444Y329946D03*
X352044Y329946D03*
X326644Y329946D03*
X301244Y329946D03*
X275844Y329946D03*
X250444Y329946D03*
X225044Y329946D03*
X199644Y329946D03*
X174244Y329946D03*
X148844Y329946D03*
X123444Y329946D03*
X98044Y329946D03*
X72644Y329946D03*
X21844Y329946D03*
X47244Y329946D03*
X529844Y355346D03*
X504444Y355346D03*
X479044Y355346D03*
X453644Y355346D03*
X428244Y355346D03*
X402844Y355346D03*
X377444Y355346D03*
X352044Y355346D03*
X326644Y355346D03*
X301244Y355346D03*
X275844Y355346D03*
X250444Y355346D03*
X225044Y355346D03*
X199644Y355346D03*
X174244Y355346D03*
X148844Y355346D03*
X123444Y355346D03*
X98044Y355346D03*
X72644Y355346D03*
X21844Y355346D03*
X47244Y355346D03*
X529844Y380746D03*
X504444Y380746D03*
X479044Y380746D03*
X453644Y380746D03*
X428244Y380746D03*
X402844Y380746D03*
X377444Y380746D03*
X352044Y380746D03*
X326644Y380746D03*
X301244Y380746D03*
X275844Y380746D03*
X250444Y380746D03*
X225044Y380746D03*
X199644Y380746D03*
X174244Y380746D03*
X148844Y380746D03*
X123444Y380746D03*
X98044Y380746D03*
X72644Y380746D03*
X21844Y380746D03*
X47244Y380746D03*
X529844Y406146D03*
X504444Y406146D03*
X479044Y406146D03*
X453644Y406146D03*
X428244Y406146D03*
X402844Y406146D03*
X377444Y406146D03*
X352044Y406146D03*
X326644Y406146D03*
X301244Y406146D03*
X275844Y406146D03*
X250444Y406146D03*
X225044Y406146D03*
X199644Y406146D03*
X174244Y406146D03*
X148844Y406146D03*
X123444Y406146D03*
X98044Y406146D03*
X72644Y406146D03*
X21844Y406146D03*
X47244Y406146D03*
X529844Y431546D03*
X504444Y431546D03*
X479044Y431546D03*
X453644Y431546D03*
X428244Y431546D03*
X402844Y431546D03*
X377444Y431546D03*
X352044Y431546D03*
X326644Y431546D03*
X250444Y431546D03*
X225044Y431546D03*
X199644Y431546D03*
X174244Y431546D03*
X148844Y431546D03*
X123444Y431546D03*
X98044Y431546D03*
X72644Y431546D03*
X21844Y431546D03*
X47244Y431546D03*
X555244Y812546D03*
X555244Y787146D03*
X555244Y761746D03*
X555244Y736346D03*
X555244Y710946D03*
X555244Y685546D03*
X555244Y660146D03*
X555244Y634746D03*
X555244Y609346D03*
X555244Y583946D03*
X555244Y558546D03*
X555244Y533146D03*
X555244Y507746D03*
X555244Y482346D03*
X529844Y456946D03*
X555244Y456946D03*
X504444Y456946D03*
X479044Y456946D03*
X453644Y456946D03*
X428244Y456946D03*
X402844Y456946D03*
X377444Y456946D03*
X352044Y456946D03*
X326644Y456946D03*
X250444Y456946D03*
X225044Y456946D03*
X199644Y456946D03*
X174244Y456946D03*
X148844Y456946D03*
X123444Y456946D03*
X98044Y456946D03*
X72644Y456946D03*
X21844Y456946D03*
X47244Y456946D03*
X529844Y482346D03*
X504444Y482346D03*
X479044Y482346D03*
X453644Y482346D03*
X428244Y482346D03*
X402844Y482346D03*
X377444Y482346D03*
X352044Y482346D03*
X326644Y482346D03*
X250444Y482346D03*
X275844Y482346D03*
X275844Y431546D03*
X275844Y456946D03*
X301244Y482346D03*
X301244Y431546D03*
X301244Y456946D03*
X225044Y482346D03*
X199644Y482346D03*
X174244Y482346D03*
X148844Y482346D03*
X123444Y482346D03*
X98044Y482346D03*
X72644Y482346D03*
X21844Y482346D03*
X47244Y482346D03*
X529844Y507746D03*
X504444Y507746D03*
X479044Y507746D03*
X453644Y507746D03*
X428244Y507746D03*
X402844Y507746D03*
X377444Y507746D03*
X352044Y507746D03*
X326644Y507746D03*
X301244Y507746D03*
X275844Y507746D03*
X250444Y507746D03*
X225044Y507746D03*
X199644Y507746D03*
X174244Y507746D03*
X148844Y507746D03*
X123444Y507746D03*
X98044Y507746D03*
X72644Y507746D03*
X21844Y507746D03*
X47244Y507746D03*
X529844Y533146D03*
X504444Y533146D03*
X479044Y533146D03*
X453644Y533146D03*
X428244Y533146D03*
X402844Y533146D03*
X377444Y533146D03*
X352044Y533146D03*
X326644Y533146D03*
X301244Y533146D03*
X275844Y533146D03*
X250444Y533146D03*
X225044Y533146D03*
X199644Y533146D03*
X174244Y533146D03*
X148844Y533146D03*
X123444Y533146D03*
X98044Y533146D03*
X72644Y533146D03*
X21844Y533146D03*
X47244Y533146D03*
X529844Y558546D03*
X504444Y558546D03*
X479044Y558546D03*
X453644Y558546D03*
X428244Y558546D03*
X402844Y558546D03*
X377444Y558546D03*
X352044Y558546D03*
X326644Y558546D03*
X301244Y558546D03*
X275844Y558546D03*
X250444Y558546D03*
X225044Y558546D03*
X199644Y558546D03*
X174244Y558546D03*
X148844Y558546D03*
X123444Y558546D03*
X98044Y558546D03*
X72644Y558546D03*
X21844Y558546D03*
X47244Y558546D03*
X529844Y583946D03*
X504444Y583946D03*
X479044Y583946D03*
X453644Y583946D03*
X428244Y583946D03*
X402844Y583946D03*
X377444Y583946D03*
X352044Y583946D03*
X326644Y583946D03*
X301244Y583946D03*
X275844Y583946D03*
X250444Y583946D03*
X225044Y583946D03*
X199644Y583946D03*
X174244Y583946D03*
X148844Y583946D03*
X123444Y583946D03*
X98044Y583946D03*
X72644Y583946D03*
X21844Y583946D03*
X47244Y583946D03*
X529844Y609346D03*
X504444Y609346D03*
X479044Y609346D03*
X453644Y609346D03*
X428244Y609346D03*
X402844Y609346D03*
X377444Y609346D03*
X352044Y609346D03*
X326644Y609346D03*
X301244Y609346D03*
X275844Y609346D03*
X250444Y609346D03*
X225044Y609346D03*
X199644Y609346D03*
X174244Y609346D03*
X148844Y609346D03*
X123444Y609346D03*
X98044Y609346D03*
X72644Y609346D03*
X21844Y609346D03*
X47244Y609346D03*
X529844Y634746D03*
X504444Y634746D03*
X479044Y634746D03*
X453644Y634746D03*
X428244Y634746D03*
X402844Y634746D03*
X377444Y634746D03*
X352044Y634746D03*
X326644Y634746D03*
X301244Y634746D03*
X275844Y634746D03*
X250444Y634746D03*
X225044Y634746D03*
X199644Y634746D03*
X174244Y634746D03*
X148844Y634746D03*
X123444Y634746D03*
X98044Y634746D03*
X72644Y634746D03*
X21844Y634746D03*
X47244Y634746D03*
X529844Y660146D03*
X504444Y660146D03*
X479044Y660146D03*
X453644Y660146D03*
X428244Y660146D03*
X402844Y660146D03*
X377444Y660146D03*
X352044Y660146D03*
X326644Y660146D03*
X301244Y660146D03*
X275844Y660146D03*
X250444Y660146D03*
X225044Y660146D03*
X199644Y660146D03*
X174244Y660146D03*
X148844Y660146D03*
X123444Y660146D03*
X98044Y660146D03*
X72644Y660146D03*
X47244Y660146D03*
X529844Y685546D03*
X504444Y685546D03*
X479044Y685546D03*
X453644Y685546D03*
X428244Y685546D03*
X402844Y685546D03*
X377444Y685546D03*
X352044Y685546D03*
X326644Y685546D03*
X301244Y685546D03*
X275844Y685546D03*
X250444Y685546D03*
X225044Y685546D03*
X199644Y685546D03*
X174244Y685546D03*
X148844Y685546D03*
X123444Y685546D03*
X98044Y685546D03*
X72644Y685546D03*
X21844Y660146D03*
X47244Y685546D03*
X529844Y710946D03*
X504444Y710946D03*
X479044Y710946D03*
X453644Y710946D03*
X428244Y710946D03*
X402844Y710946D03*
X377444Y710946D03*
X352044Y710946D03*
X326644Y710946D03*
X301244Y710946D03*
X275844Y710946D03*
X250444Y710946D03*
X225044Y710946D03*
X199644Y710946D03*
X174244Y710946D03*
X148844Y710946D03*
X123444Y710946D03*
X98044Y710946D03*
X72644Y710946D03*
X21844Y685546D03*
X47244Y710946D03*
X529844Y736346D03*
X504444Y736346D03*
X479044Y736346D03*
X453644Y736346D03*
X428244Y736346D03*
X402844Y736346D03*
X377444Y736346D03*
X352044Y736346D03*
X326644Y736346D03*
X301244Y736346D03*
X275844Y736346D03*
X250444Y736346D03*
X225044Y736346D03*
X199644Y736346D03*
X174244Y736346D03*
X148844Y736346D03*
X123444Y736346D03*
X98044Y736346D03*
X72644Y736346D03*
X21844Y710946D03*
X47244Y736346D03*
X529844Y812546D03*
X504444Y812546D03*
X479044Y812546D03*
X453644Y812546D03*
X428244Y812546D03*
X402844Y812546D03*
X377444Y812546D03*
X352044Y812546D03*
X326644Y812546D03*
X301244Y812546D03*
X275844Y812546D03*
X250444Y812546D03*
X225044Y812546D03*
X199644Y812546D03*
X174244Y812546D03*
X148844Y812546D03*
X123444Y812546D03*
X98044Y812546D03*
X72644Y812546D03*
X21844Y812546D03*
X47244Y812546D03*
X529844Y761746D03*
X504444Y761746D03*
X479044Y761746D03*
X453644Y761746D03*
X428244Y761746D03*
X402844Y761746D03*
X377444Y761746D03*
X352044Y761746D03*
X326644Y761746D03*
X301244Y761746D03*
X275844Y761746D03*
X250444Y761746D03*
X225044Y761746D03*
X199644Y761746D03*
X174244Y761746D03*
X148844Y761746D03*
X123444Y761746D03*
X98044Y761746D03*
X72644Y761746D03*
X21844Y736346D03*
X47244Y761746D03*
X529844Y787146D03*
X504444Y787146D03*
X479044Y787146D03*
X453644Y787146D03*
X428244Y787146D03*
X402844Y787146D03*
X377444Y787146D03*
X352044Y787146D03*
X326644Y787146D03*
X301244Y787146D03*
X275844Y787146D03*
X250444Y787146D03*
X225044Y787146D03*
X199644Y787146D03*
X174244Y787146D03*
X148844Y787146D03*
X123444Y787146D03*
X98044Y787146D03*
X72644Y787146D03*
X47244Y787146D03*
X21844Y761746D03*
X21844Y787146D03*
X555244Y888746D03*
X555244Y863346D03*
X555244Y837946D03*
X529844Y888746D03*
X504444Y888746D03*
X479044Y888746D03*
X453644Y888746D03*
X428244Y888746D03*
X402844Y888746D03*
X377444Y888746D03*
X352044Y888746D03*
X326644Y888746D03*
X301244Y888746D03*
X275844Y888746D03*
X250444Y888746D03*
X225044Y888746D03*
X199644Y888746D03*
X174244Y888746D03*
X148844Y888746D03*
X123444Y888746D03*
X98044Y888746D03*
X72644Y888746D03*
X21844Y888746D03*
X47244Y888746D03*
X529844Y837946D03*
X504444Y837946D03*
X479044Y837946D03*
X453644Y837946D03*
X428244Y837946D03*
X402844Y837946D03*
X377444Y837946D03*
X352044Y837946D03*
X326644Y837946D03*
X301244Y837946D03*
X275844Y837946D03*
X250444Y837946D03*
X225044Y837946D03*
X199644Y837946D03*
X174244Y837946D03*
X148844Y837946D03*
X123444Y837946D03*
X98044Y837946D03*
X72644Y837946D03*
X47244Y837946D03*
X529844Y863346D03*
X504444Y863346D03*
X479044Y863346D03*
X453644Y863346D03*
X428244Y863346D03*
X402844Y863346D03*
X377444Y863346D03*
X352044Y863346D03*
X326644Y863346D03*
X301244Y863346D03*
X275844Y863346D03*
X250444Y863346D03*
X225044Y863346D03*
X199644Y863346D03*
X174244Y863346D03*
X148844Y863346D03*
X123444Y863346D03*
X98044Y863346D03*
X72644Y863346D03*
X47244Y863346D03*
X21844Y837946D03*
X21844Y863346D03*
X-3556Y660146D03*
X-28956Y660146D03*
X-3556Y685546D03*
X-28956Y685546D03*
X-3556Y710946D03*
X-28956Y710946D03*
X-3556Y736346D03*
X-28956Y812546D03*
X-3556Y812546D03*
X-28956Y736346D03*
X-3556Y761746D03*
X-3556Y787146D03*
X-28956Y761746D03*
X-28956Y787146D03*
X-28956Y888746D03*
X-3556Y888746D03*
X-3556Y837946D03*
X-3556Y863346D03*
X-28956Y837946D03*
X-28956Y863346D03*
X606044Y660146D03*
X580644Y660146D03*
X606044Y685546D03*
X580644Y685546D03*
X606044Y710946D03*
X580644Y710946D03*
X606044Y736346D03*
X580644Y812546D03*
X606044Y812546D03*
X580644Y736346D03*
X606044Y761746D03*
X606044Y787146D03*
X580644Y761746D03*
X580644Y787146D03*
X580644Y888746D03*
X606044Y888746D03*
X606044Y837946D03*
X606044Y863346D03*
X580644Y837946D03*
X580644Y863346D03*
X-6096Y355346D03*
X-6096Y380746D03*
X-6096Y406146D03*
X-6096Y431546D03*
X-6096Y456946D03*
X-6096Y482346D03*
X-6096Y507746D03*
X-6096Y533146D03*
X-6096Y558546D03*
X-6096Y583946D03*
X-6096Y609346D03*
X-6096Y634746D03*
X580644Y355346D03*
X580644Y380746D03*
X580644Y406146D03*
X580644Y431546D03*
X580644Y456946D03*
X580644Y482346D03*
X580644Y507746D03*
X580644Y533146D03*
X580644Y558546D03*
X580644Y583946D03*
X580644Y609346D03*
X580644Y634746D03*
M02*
