G04 EAGLE Gerber RS-274X export*
G75*
%MOMM*%
%FSLAX34Y34*%
%LPD*%
%INSolderpaste Top*%
%IPPOS*%
%AMOC8*
5,1,8,0,0,1.08239X$1,22.5*%
G01*
%ADD10C,1.333500*%


D10*
X556577Y101283D02*
X561023Y101283D01*
X561023Y25717D01*
X556577Y25717D01*
X556577Y101283D01*
X556577Y38385D02*
X561023Y38385D01*
X561023Y51053D02*
X556577Y51053D01*
X556577Y63721D02*
X561023Y63721D01*
X561023Y76389D02*
X556577Y76389D01*
X556577Y89057D02*
X561023Y89057D01*
X535623Y101283D02*
X531177Y101283D01*
X535623Y101283D02*
X535623Y25717D01*
X531177Y25717D01*
X531177Y101283D01*
X531177Y38385D02*
X535623Y38385D01*
X535623Y51053D02*
X531177Y51053D01*
X531177Y63721D02*
X535623Y63721D01*
X535623Y76389D02*
X531177Y76389D01*
X531177Y89057D02*
X535623Y89057D01*
X510223Y101283D02*
X505777Y101283D01*
X510223Y101283D02*
X510223Y25717D01*
X505777Y25717D01*
X505777Y101283D01*
X505777Y38385D02*
X510223Y38385D01*
X510223Y51053D02*
X505777Y51053D01*
X505777Y63721D02*
X510223Y63721D01*
X510223Y76389D02*
X505777Y76389D01*
X505777Y89057D02*
X510223Y89057D01*
X484823Y101283D02*
X480377Y101283D01*
X484823Y101283D02*
X484823Y25717D01*
X480377Y25717D01*
X480377Y101283D01*
X480377Y38385D02*
X484823Y38385D01*
X484823Y51053D02*
X480377Y51053D01*
X480377Y63721D02*
X484823Y63721D01*
X484823Y76389D02*
X480377Y76389D01*
X480377Y89057D02*
X484823Y89057D01*
X459423Y101283D02*
X454977Y101283D01*
X459423Y101283D02*
X459423Y25717D01*
X454977Y25717D01*
X454977Y101283D01*
X454977Y38385D02*
X459423Y38385D01*
X459423Y51053D02*
X454977Y51053D01*
X454977Y63721D02*
X459423Y63721D01*
X459423Y76389D02*
X454977Y76389D01*
X454977Y89057D02*
X459423Y89057D01*
X434023Y101283D02*
X429577Y101283D01*
X434023Y101283D02*
X434023Y25717D01*
X429577Y25717D01*
X429577Y101283D01*
X429577Y38385D02*
X434023Y38385D01*
X434023Y51053D02*
X429577Y51053D01*
X429577Y63721D02*
X434023Y63721D01*
X434023Y76389D02*
X429577Y76389D01*
X429577Y89057D02*
X434023Y89057D01*
X408623Y101283D02*
X404177Y101283D01*
X408623Y101283D02*
X408623Y25717D01*
X404177Y25717D01*
X404177Y101283D01*
X404177Y38385D02*
X408623Y38385D01*
X408623Y51053D02*
X404177Y51053D01*
X404177Y63721D02*
X408623Y63721D01*
X408623Y76389D02*
X404177Y76389D01*
X404177Y89057D02*
X408623Y89057D01*
X383223Y101283D02*
X378777Y101283D01*
X383223Y101283D02*
X383223Y25717D01*
X378777Y25717D01*
X378777Y101283D01*
X378777Y38385D02*
X383223Y38385D01*
X383223Y51053D02*
X378777Y51053D01*
X378777Y63721D02*
X383223Y63721D01*
X383223Y76389D02*
X378777Y76389D01*
X378777Y89057D02*
X383223Y89057D01*
X357823Y101283D02*
X353377Y101283D01*
X357823Y101283D02*
X357823Y25717D01*
X353377Y25717D01*
X353377Y101283D01*
X353377Y38385D02*
X357823Y38385D01*
X357823Y51053D02*
X353377Y51053D01*
X353377Y63721D02*
X357823Y63721D01*
X357823Y76389D02*
X353377Y76389D01*
X353377Y89057D02*
X357823Y89057D01*
X332423Y101283D02*
X327977Y101283D01*
X332423Y101283D02*
X332423Y25717D01*
X327977Y25717D01*
X327977Y101283D01*
X327977Y38385D02*
X332423Y38385D01*
X332423Y51053D02*
X327977Y51053D01*
X327977Y63721D02*
X332423Y63721D01*
X332423Y76389D02*
X327977Y76389D01*
X327977Y89057D02*
X332423Y89057D01*
X307023Y101283D02*
X302577Y101283D01*
X307023Y101283D02*
X307023Y25717D01*
X302577Y25717D01*
X302577Y101283D01*
X302577Y38385D02*
X307023Y38385D01*
X307023Y51053D02*
X302577Y51053D01*
X302577Y63721D02*
X307023Y63721D01*
X307023Y76389D02*
X302577Y76389D01*
X302577Y89057D02*
X307023Y89057D01*
X281623Y101283D02*
X277177Y101283D01*
X281623Y101283D02*
X281623Y25717D01*
X277177Y25717D01*
X277177Y101283D01*
X277177Y38385D02*
X281623Y38385D01*
X281623Y51053D02*
X277177Y51053D01*
X277177Y63721D02*
X281623Y63721D01*
X281623Y76389D02*
X277177Y76389D01*
X277177Y89057D02*
X281623Y89057D01*
X256223Y101283D02*
X251777Y101283D01*
X256223Y101283D02*
X256223Y25717D01*
X251777Y25717D01*
X251777Y101283D01*
X251777Y38385D02*
X256223Y38385D01*
X256223Y51053D02*
X251777Y51053D01*
X251777Y63721D02*
X256223Y63721D01*
X256223Y76389D02*
X251777Y76389D01*
X251777Y89057D02*
X256223Y89057D01*
X230823Y101283D02*
X226377Y101283D01*
X230823Y101283D02*
X230823Y25717D01*
X226377Y25717D01*
X226377Y101283D01*
X226377Y38385D02*
X230823Y38385D01*
X230823Y51053D02*
X226377Y51053D01*
X226377Y63721D02*
X230823Y63721D01*
X230823Y76389D02*
X226377Y76389D01*
X226377Y89057D02*
X230823Y89057D01*
X205423Y101283D02*
X200977Y101283D01*
X205423Y101283D02*
X205423Y25717D01*
X200977Y25717D01*
X200977Y101283D01*
X200977Y38385D02*
X205423Y38385D01*
X205423Y51053D02*
X200977Y51053D01*
X200977Y63721D02*
X205423Y63721D01*
X205423Y76389D02*
X200977Y76389D01*
X200977Y89057D02*
X205423Y89057D01*
X180023Y101283D02*
X175577Y101283D01*
X180023Y101283D02*
X180023Y25717D01*
X175577Y25717D01*
X175577Y101283D01*
X175577Y38385D02*
X180023Y38385D01*
X180023Y51053D02*
X175577Y51053D01*
X175577Y63721D02*
X180023Y63721D01*
X180023Y76389D02*
X175577Y76389D01*
X175577Y89057D02*
X180023Y89057D01*
X154623Y101283D02*
X150177Y101283D01*
X154623Y101283D02*
X154623Y25717D01*
X150177Y25717D01*
X150177Y101283D01*
X150177Y38385D02*
X154623Y38385D01*
X154623Y51053D02*
X150177Y51053D01*
X150177Y63721D02*
X154623Y63721D01*
X154623Y76389D02*
X150177Y76389D01*
X150177Y89057D02*
X154623Y89057D01*
X129223Y101283D02*
X124777Y101283D01*
X129223Y101283D02*
X129223Y25717D01*
X124777Y25717D01*
X124777Y101283D01*
X124777Y38385D02*
X129223Y38385D01*
X129223Y51053D02*
X124777Y51053D01*
X124777Y63721D02*
X129223Y63721D01*
X129223Y76389D02*
X124777Y76389D01*
X124777Y89057D02*
X129223Y89057D01*
X103823Y101283D02*
X99377Y101283D01*
X103823Y101283D02*
X103823Y25717D01*
X99377Y25717D01*
X99377Y101283D01*
X99377Y38385D02*
X103823Y38385D01*
X103823Y51053D02*
X99377Y51053D01*
X99377Y63721D02*
X103823Y63721D01*
X103823Y76389D02*
X99377Y76389D01*
X99377Y89057D02*
X103823Y89057D01*
X78423Y101283D02*
X73977Y101283D01*
X78423Y101283D02*
X78423Y25717D01*
X73977Y25717D01*
X73977Y101283D01*
X73977Y38385D02*
X78423Y38385D01*
X78423Y51053D02*
X73977Y51053D01*
X73977Y63721D02*
X78423Y63721D01*
X78423Y76389D02*
X73977Y76389D01*
X73977Y89057D02*
X78423Y89057D01*
X53023Y101283D02*
X48577Y101283D01*
X53023Y101283D02*
X53023Y25717D01*
X48577Y25717D01*
X48577Y101283D01*
X48577Y38385D02*
X53023Y38385D01*
X53023Y51053D02*
X48577Y51053D01*
X48577Y63721D02*
X53023Y63721D01*
X53023Y76389D02*
X48577Y76389D01*
X48577Y89057D02*
X53023Y89057D01*
X27623Y101283D02*
X23177Y101283D01*
X27623Y101283D02*
X27623Y25717D01*
X23177Y25717D01*
X23177Y101283D01*
X23177Y38385D02*
X27623Y38385D01*
X27623Y51053D02*
X23177Y51053D01*
X23177Y63721D02*
X27623Y63721D01*
X27623Y76389D02*
X23177Y76389D01*
X23177Y89057D02*
X27623Y89057D01*
M02*
